<?xml version="1.0" encoding="UTF-8" standalone="no"?>
<!-- Created with Inkscape (http://www.inkscape.org/) -->

<svg
   width="360.96365mm"
   height="364.5394mm"
   viewBox="0 0 360.96365 364.5394"
   version="1.1"
   id="svg1"
   xml:space="preserve"
   xmlns:inkscape="http://www.inkscape.org/namespaces/inkscape"
   xmlns:sodipodi="http://sodipodi.sourceforge.net/DTD/sodipodi-0.dtd"
   xmlns="http://www.w3.org/2000/svg"
   xmlns:svg="http://www.w3.org/2000/svg"><sodipodi:namedview
     id="namedview1"
     pagecolor="#ffffff"
     bordercolor="#000000"
     borderopacity="0.25"
     inkscape:showpageshadow="2"
     inkscape:pageopacity="0.0"
     inkscape:pagecheckerboard="0"
     inkscape:deskcolor="#d1d1d1"
     inkscape:document-units="mm" /><defs
     id="defs1" /><g
     inkscape:label="Layer 1"
     inkscape:groupmode="layer"
     id="layer1"
     transform="translate(75.454851,87.194379)"><g
       id="g10"
       transform="matrix(0.03527778,0,0,-0.03527778,-247.75012,589.47225)"><path
         d="M -1242.6419,24937.868 H 18757.358 V -62.132097 H -1242.6419 V 24937.868"
         style="fill:#ffffff;fill-opacity:1;fill-rule:evenodd;stroke:none"
         id="path12" /><path
         d="m 8165.91,13746.6 -263.51,-497.9 c -8.32,-17.2 -18.42,-34.4 -29.94,-51.2 l 107.13,-1.2 c 22.43,-0.2 41.57,-11.3 53.03,-30.6 11.44,-19.3 11.96,-41.4 1.43,-61.2 -344.83,-648.9 -599.67,-1606.6 -28.01,-2477.8 -510.16,1036.4 -203.18,1941.1 83.99,2458.8 9.46,17 24.59,27.8 43.8,31.2 1.33,0.2 2.67,0.4 3.99,0.6 l 156.46,401.7 z M 6042.66,11128 c -35.99,-114.1 -89.1,-330.7 180.63,-693.2 -222.32,487.7 -181.38,571 -180.63,693.2 z m 650.39,0 c -36.01,-114.1 -89.1,-330.7 180.62,-693.2 -222.32,487.7 -181.38,571 -180.62,693.2 z m -325.2,0 c -36,-114.1 -89.09,-330.7 180.63,-693.2 -222.33,487.7 -181.38,571 -180.63,693.2 z m 1070.27,-536 c 27.45,-49.1 61.29,-101.4 102.82,-157.2 -19.48,42.8 -36.91,82.3 -52.55,119.1 -162.86,383.5 -128.77,462.6 -128.09,574.1 -30.45,-96.5 -73.13,-266.5 77.82,-536 z m -448.48,394.6 c -8.51,-125.3 25.3,-304.6 209.22,-551.8 -126.9,278.4 -168,425 -179.81,522.3 -8.85,73.2 -1.14,118.5 -0.83,170.9 -11.44,-36.3 -24.62,-83 -28.58,-141.4 z m 1223.23,3197.2 83.34,-67.4 18.41,-130.7 128.33,-170.9 858.91,2184.5 c -15.27,-1.7 -25.34,4.9 -25.34,4.9 l -695.72,-1351.8 -11.38,-59.6 -140.22,-175.8 -88.43,-17.4 z m 2520.73,2197.8 105,-73.9 c 0,0 31.8,-84.9 49.6,-177.5 20.7,-108 404.4,-571.3 815.1,-1065.5 l 36.5,102.2 -476.3,904.1 -71.9,41.9 -100.2,177.8 30.8,59.8 -284.8,490 -135.8,-310.8 -1,-2.3 1.8,-1.8 3.8,-3.7 z m -263.4,-945.6 c -23.8,26.2 -46.8,51.4 -69.2,75.9 -84.6,-156.7 -171.1,-312.5 -263,-468.7 334,-401.6 361.3,218.3 332.2,392.8 z m 1067.3,-1319.6 -1.6,-1 176.5,-454.8 69.4,-55.4 10.5,-118 149.6,-484.1 92.1,168.1 69.9,-10.2 1,-314.8 87.3,-6.9 18.3,-247.9 c 9.4,121.4 19.2,259 24.1,365.4 6.9,150.9 -262.4,567.6 -586.6,1010.4 -36.2,49.5 -73.2,99.4 -110.5,149.2 z m 324.8,-1343.2 -88.8,-162.8 7,-62.9 154.5,1 z m 96.1,176.4 87.8,-284 1.4,447.4 z m -177.1,-1762.1 c 1,-0.1 2.1,-0.2 3.1,-0.4 1.4,-0.1 2.9,-0.2 4.4,-0.4 v 0 0 0 c 3,-0.2 6.1,-0.4 9.1,-0.5 8.3,-0.1 16.5,0.4 24.5,1.6 l 0.6,0.1 v 0 h 0.6 l 1.1,0.2 h 0.2 l 0.4,0.1 0.5,0.1 v 0 l 1.2,0.2 0.5,0.1 h 0.2 l 0.4,0.1 0.6,0.1 v 0 l 0.5,0.1 2.3,0.5 v 0 l 0.6,0.1 0.3,0.1 h 0.2 l 0.6,0.2 h 0.1 l 0.5,0.1 0.4,0.1 h 0.1 l 0.6,0.1 0.3,0.1 0.2,0.1 1.1,0.2 0.5,0.1 0.1,0.1 0.8,0.2 0.3,0.1 0.6,0.1 h 0.1 l 0.4,0.2 0.6,0.1 0.5,0.1 0.3,0.1 0.3,0.1 0.5,0.2 h 0.1 l 0.9,0.2 0.2,0.1 0.5,0.1 1.1,0.4 h 0.1 l 0.5,0.1 0.4,0.2 h 0.1 l 0.6,0.2 0.5,0.2 0.6,0.1 v 0 l 0.5,0.2 0.4,0.1 0.1,0.1 0.6,0.1 0.2,0.1 0.3,0.2 0.6,0.1 v 0.1 l 0.5,0.1 0.4,0.2 h 0.2 l 0.5,0.2 0.2,0.1 0.3,0.1 0.6,0.2 v 0 l 0.5,0.2 0.4,0.1 0.2,0.1 0.5,0.2 0.2,0.1 0.3,0.1 0.6,0.2 v 0 l 0.5,0.2 0.4,0.2 h 0.2 l 0.5,0.2 0.2,0.1 0.3,0.1 0.6,0.3 c -68.4,31.4 -115.5,113.5 -112.4,208.7 3.2,95.3 55.5,175.3 125.8,203.8 -18.3,8.5 -38.2,13.3 -59.1,13.7 -98.6,2.1 -181.8,-94.1 -185.7,-215 -0.1,-1.8 -0.1,-3.6 -0.1,-5.4 v -0.2 -2.3 -3.2 -0.1 c 0,-1.7 0,-3.4 0.1,-5.1 v -0.2 l 0.1,-2.7 0.1,-2.8 0.1,-2.4 0.2,-3.1 0.1,-2.1 0.3,-3.3 0.3,-2.3 0.2,-2.8 0.4,-3.1 0.3,-2.3 0.4,-2.9 0.3,-2.3 0.5,-2.6 0.4,-2.8 0.4,-2.4 0.6,-2.8 0.4,-2 0.7,-3.3 0.4,-1.9 0.7,-2.9 0.5,-2.4 0.7,-2.6 0.7,-2.5 0.6,-2.4 0.8,-2.6 0.7,-2.3 0.7,-2.4 0.8,-2.6 0.8,-2.3 0.8,-2.4 0.9,-2.4 0.8,-2.3 0.9,-2.3 1,-2.5 0.9,-2.2 1,-2.4 0.9,-2.1 1.1,-2.5 1,-2.1 1,-2.1 1.1,-2.4 1.3,-2.6 0.7,-1.5 1.6,-2.9 0.8,-1.5 1.3,-2.3 1.1,-2 1.3,-2.2 1.2,-2 1.8,-3 0.6,-0.9 c 0.6,-1.1 1.3,-2.1 2,-3.2 l 0.6,-0.9 1.7,-2.5 1,-1.4 0.1,-0.2 c 0.9,-1.2 1.8,-2.5 2.7,-3.7 v 0 l 0.4,-0.6 c 1.7,-2.3 3.5,-4.7 5.4,-6.9 l 0.6,-0.8 c 0.8,-0.9 1.5,-1.9 2.3,-2.8 l 1,-1.1 2.1,-2.4 1.3,-1.5 1.6,-1.8 1.6,-1.6 1.8,-1.9 1.4,-1.4 1.7,-1.6 1.7,-1.7 1.7,-1.6 1.5,-1.4 1.8,-1.6 1.5,-1.2 2.1,-1.8 1.4,-1.2 1.9,-1.5 1.8,-1.4 1.8,-1.4 1.8,-1.3 1.8,-1.3 1.9,-1.3 1.8,-1.3 1.9,-1.2 1.8,-1.2 1.9,-1.1 2,-1.2 1.8,-1.1 2,-1.2 1.8,-0.9 2.1,-1.2 1.9,-0.9 2,-1.1 1.9,-0.8 2.2,-1.1 1.8,-0.7 2.1,-0.9 2.1,-0.9 2,-0.8 2,-0.7 2.2,-0.8 2,-0.7 2,-0.7 2.2,-0.7 2.4,-0.6 1.7,-0.6 2.6,-0.6 1.8,-0.4 2.2,-0.5 2.2,-0.5 2.2,-0.5 2.1,-0.4 2.2,-0.3 2.2,-0.4 z m -3435.27,-926.8 -69.74,353.3 c 530.57,-277.4 1133.98,-434.5 1774.21,-434.5 878.5,0 1687.9,295.6 2334.5,792.6 h 0.6 l 26.1,20.5 c 12,9.3 23.8,18.9 35.7,28.5 l 251.8,201.9 -53,-1.8 c -2.3,51.2 1.9,102.9 12.1,151.9 l -718,-23.7 c 4.7,15.2 8.5,31.1 11,47.6 4.4,27.9 5.1,55.1 2.6,80.6 l 748.5,24.7 c 22.2,43.8 50.2,80.7 83.3,106.5 h 0.6 l 1.3,-0.2 0.8,-0.1 1.1,-0.1 1.1,-0.1 0.9,-0.1 1.2,-0.1 0.7,-0.1 1.5,-0.1 0.4,-0.1 1.7,-0.2 h 0.2 l 2,-0.2 v 0 l 1.9,-0.2 h 0.2 l 1.7,-0.2 h 0.5 l 1.5,-0.2 h 0.7 l 1.2,-0.2 0.9,-0.1 1,-0.1 1.2,-0.1 0.8,-0.1 1.4,-0.1 0.5,-0.1 1.6,-0.1 0.3,-0.1 1.9,-0.2 h 0.1 l 1.9,-0.2 h 0.2 l 1.8,-0.2 h 0.3 l 1.6,-0.2 0.6,-0.1 1.4,-0.1 0.8,-0.1 1.1,-0.1 1,-0.1 0.9,-0.1 1.3,-0.1 0.7,-0.1 1.5,-0.1 0.4,-0.1 1.8,-0.2 h 0.2 l 1.9,-0.2 v 0 l 2,-0.2 h 0.2 l 1.7,-0.2 h 0.5 l 1.5,-0.2 h 0.6 l 1.3,-0.1 0.9,-0.1 1,-0.1 1.2,-0.2 h 0.8 l 1.4,-0.2 h 0.5 l 1.6,-0.2 h 0.4 l 1.8,-0.2 h 0.1 l 2,-0.2 h 0.1 l 1.8,-0.2 h 0.3 l 1.6,-0.1 0.6,-0.1 1.4,-0.1 0.8,-0.1 1.1,-0.1 1.1,-0.1 0.9,-0.1 1.2,-0.1 0.7,-0.1 1.5,-0.1 h 0.5 l 1.7,-0.2 h 0.2 l 1.9,-0.2 v 0 l 2,-0.1 h 0.2 l 1.7,-0.2 0.5,-0.1 1.4,-0.1 h 0.7 l 1.3,-0.1 0.9,-0.1 1,-0.1 1.2,-0.1 h 0.7 l 1.4,-0.1 0.6,-0.1 1.6,-0.1 0.3,-0.1 1.8,-0.1 h 0.1 l 1.9,-0.1 h 0.2 l 1.8,-0.2 h 0.3 l 1.6,-0.1 0.6,-0.1 1.3,-0.1 h 0.8 l 1.1,-0.1 1.1,-0.1 h 0.9 l 1.2,-0.1 h 0.7 l 1.5,-0.1 0.4,-0.1 1.7,-0.1 h 0.2 l 1.9,-0.1 12.4,-0.8 122.5,20.9 25.7,32.7 c 5.9,7.5 11.7,15.1 17.6,22.6 l 6.2,8.2 c 3.8,4.9 7.6,9.9 11.3,14.8 l 7,9.2 8.7,11.6 h -135.5 l -69.3,-11.8 c -23.3,1.4 -270,25.5 -269.9,27.5 l -40.1,6.1 2.5,91.6 c -354.2,16.8 -1220.7,63.8 -1254.8,-426.5 5,-119.4 99.5,-268.4 167.5,-335.1 177,10 356.3,11.3 532.5,20.9 100.7,5.5 214,12.1 326.3,15.7 -11.6,-9.2 -23.1,-18.6 -34.7,-27.7 l -326.4,-228.2 c -589.1,-367.4 -1267.7,-562 -1968.5,-562 -601.81,0 -1190.98,143.4 -1724.34,422.3 l -17.85,9.3 54.37,130.4 317.84,459.7 322.03,-293.9 252.4,71.4 116.91,-92.2 202.97,-53 201.71,17.7 123.5,-50.1 846.26,24.5 383.3,115.2 c -108.2,4 -133.9,13.5 -232.8,82.5 -267.8,187.1 -107.9,582.8 194.8,649.8 660.3,106 598.9,104 1224.6,139.2 l 11.3,226.1 -594.6,-2.3 c -2.9,154 -5.8,308 -8.7,462 l 40,72.9 80.9,147.7 -201.5,622.4 -51.3,87.7 9.9,86.9 c -84.4,244.4 -164.8,512.9 -260.5,750.5 -348.4,451.1 -683.2,852 -759.7,937.9 12,-379.2 -165.2,-768.3 -508.4,-378 l -1436.24,-2223.9 282.31,-245.3 -759.05,-1820.3 105.42,-534.2 h -0.33 l 8.72,-18.9 119.65,-259.9 c 0,0 3.86,-2.5 -98.8,-6.8 -76.73,-3.2 -169.28,188.5 -211.14,285.6 H 7768.2 l 128.4,-278.8 c 0,0 3.85,-2.5 -98.81,-6.8 -76.74,-3.2 -169.27,188.5 -211.15,285.6 h -315.93 l 128.39,-278.8 c 0,0 3.85,-2.5 -98.81,-6.8 -76.74,-3.2 -169.27,188.5 -211.14,285.6 h -315.93 l 128.37,-278.8 c 0,0 3.87,-2.5 -98.79,-6.8 -76.75,-3.2 -169.29,188.5 -211.15,285.6 h -315.94 l 128.39,-278.8 c 0,0 3.86,-2.5 -98.8,-6.8 -76.74,-3.2 -169.29,188.5 -211.15,285.6 h -0.7 l -185.79,449.6 c -80.51,194.9 -397.38,1028.9 -199.98,1651.9 72.2,227.9 149.04,412.9 219.87,559.1 77.68,160.4 148.12,274.3 197.28,347.2 30.49,45.2 120.57,100.3 180.55,97.6 l 868.18,-9.9 117.93,116.2 148.83,-6.1 237.68,502 c 0,0 -80.22,122.7 4.04,245.3 84.24,122.6 222.55,64.4 222.55,64.4 0,0 54.46,83.4 120.21,119.5 l 160.81,251.7 -6.96,72.6 88.58,223.2 c 0,0 47.24,34.5 55.56,44.8 8.32,10.3 292.91,454 292.91,454 l -48.23,40.1 30.06,48.6 54.28,-3.2 407.88,786 c 0,0 -41.03,130.3 19.74,207.6 73.27,93.1 108.56,63.3 151.62,91.9 80.09,53.3 168.13,122.4 216.41,176.7 74.24,83.6 313.5,426.9 414.57,451.5 l 758.87,185.1 c 0,0 242.9,-124.3 274.9,-236.7 3.1,-11.2 5.8,-22.1 8,-32.9 l 348.9,-565.4 73,-15.2 124.1,-180.6 8,-71.4 728.8,-1434.1 67.7,-258.8 33,3 1.9,16.7 56,-24.7 c 0,0 17.1,-112.7 31,-148.3 13.8,-35.7 44.6,-152.2 28,-189.8 -16.5,-37.6 -55.4,-110.9 -66.1,-131.2 131.7,-166.4 121.6,-167.5 212.1,-402.2 l 428.2,-0.8 533.4,-46.3 -9.8,113.3 94.5,8.2 11.5,-132.9 102.9,-12.2 68.5,-331.8 h 19.7 l 0.3,1.4 0.3,1.5 h 0.1 c 55.9,260.6 85.6,530.9 85.6,808.2 0,2118 -1717,3834.9 -3834.9,3834.9 -2118,0 -3834.95,-1716.9 -3834.95,-3834.9 0,-236.5 21.54,-468 62.55,-692.7 h -0.21 l -3.82,-0.4 -0.53,-0.1 h -0.39 l -0.38,-0.1 h -0.39 l -0.4,-0.1 -0.39,-0.1 -1.17,-0.1 -0.39,-0.1 h -0.39 l -0.4,-0.1 h -0.39 l -0.38,-0.1 -0.4,-0.1 h -0.39 l -0.39,-0.1 -1.98,-0.3 -0.4,-0.1 h -0.38 l -0.4,-0.1 -0.39,-0.1 h -0.4 l -0.39,-0.1 -0.4,-0.1 h -0.05 l -1.52,-0.2 -0.4,-0.1 -0.39,-0.1 -0.4,-0.1 h -0.4 l -0.4,-0.1 -0.39,-0.1 -0.4,-0.1 h -0.4 l -0.38,-0.1 -0.41,-0.1 -0.79,-0.1 -0.4,-0.1 -0.4,-0.1 -0.38,-0.1 -0.4,-0.1 h -0.41 l -0.39,-0.1 -0.4,-0.1 -0.39,-0.1 -0.4,-0.1 -1.19,-0.2 -0.41,-0.1 -0.4,-0.1 -0.4,-0.1 -1.58,-0.4 h -0.41 l -0.19,-0.1 -4.14,-1 h -0.22 -0.11 l -3.65,-1 h -0.05 l -0.83,-0.2 -3.5,-0.9 h -0.05 l -0.94,-0.3 h -0.14 l -3.57,-1 -0.41,-0.2 -4.06,-1.2 h -0.26 l -0.33,-0.2 h -0.33 l -0.32,-0.1 -0.33,-0.2 h -0.32 l -0.33,-0.2 -0.31,-0.1 -1.97,-0.6 -0.32,-0.1 -0.33,-0.1 -0.31,-0.1 -0.32,-0.1 -0.34,-0.1 -0.33,-0.1 -0.32,-0.1 h -0.05 l -2.23,-0.8 -0.33,-0.1 -0.31,-0.1 -0.34,-0.1 -0.33,-0.1 -0.32,-0.1 -0.31,-0.1 -0.33,-0.1 -0.32,-0.1 -0.33,-0.2 -1.95,-0.6 -0.33,-0.1 -0.32,-0.2 -0.33,-0.1 -0.32,-0.1 -0.32,-0.1 -0.34,-0.1 -0.31,-0.1 -0.33,-0.2 -0.33,-0.1 -0.32,-0.1 -0.33,-0.1 -0.97,-0.4 -0.33,-0.1 -0.32,-0.1 -0.33,-0.1 -0.32,-0.1 -0.32,-0.2 -0.33,-0.1 -0.32,-0.1 -0.33,-0.1 -0.98,-0.4 h -0.02 l -3.96,-1.5 h -0.02 l -0.25,-0.1 -3.51,-1.4 -1.37,-0.6 -0.2,-0.1 -3.06,-1.3 -0.92,-0.3 -0.24,-0.1 -3.28,-1.4 -0.13,-0.1 -0.79,-0.3 -0.27,-0.2 -2.92,-1.3 -2.73,-1.2 -1.3,-0.6 -0.34,-0.1 -2.21,-1.1 v 0 l -2.55,-1.2 -4.26,-2.1 -2.26,-1.1 -0.72,-0.3 -1.48,-0.8 -2.12,-1.1 -0.79,-0.4 -1.29,-0.7 -2.98,-1.5 -0.08,-0.1 -1.4,-0.7 -2.5,-1.4 -0.18,-0.1 -1.94,-1 -0.14,-0.1 -2.05,-1.2 h -0.08 l -1.96,-1.1 -0.12,-0.1 -2.52,-1.4 -1.31,-0.8 -0.27,-0.2 -2.66,-1.5 h -0.06 l -1.63,-1 -0.48,-0.3 -1.93,-1.2 -1.53,-0.9 -0.64,-0.4 -2.15,-1.4 -3.99,-2.5 -0.22,-0.1 -3.73,-2.5 h -0.03 l -0.17,-0.1 -2.49,-1.7 h -0.1 l -1.58,-1.1 -2.05,-1.4 -2,-1.4 -2.18,-1.5 -1.86,-1.3 -0.1,-0.1 -2,-1.5 -0.16,-0.1 -1.59,-1.1 -2.26,-1.7 -1.87,-1.4 -0.09,-0.1 -1.94,-1.5 -2,-1.5 -1.8,-1.4 -0.25,-0.2 -3.47,-2.7 -0.13,-0.2 -3.56,-2.9 -0.26,-0.2 h -0.04 l -3.74,-3.1 -0.11,-0.1 -0.44,-0.4 -3.05,-2.7 -0.33,-0.2 -0.67,-0.6 -2.58,-2.3 -1.24,-1.2 -2.07,-1.8 -0.11,-0.1 -1.49,-1.4 -0.03,-0.1 -2.13,-2 -0.7,-0.6 -0.35,-0.4 -2.28,-2.2 -0.25,-0.2 -1.09,-1.1 -1.88,-1.9 -1.13,-1.1 -0.41,-0.4 -2.96,-3.1 -0.06,-0.1 -2.94,-3.1 -0.06,-0.1 -0.21,-0.2 -0.84,-1 -2.22,-2.4 -0.13,-0.1 -0.58,-0.7 -2.07,-2.4 -1.26,-1.5 -1.69,-2 -1.16,-1.4 -1.66,-2 h -0.03 l -1.09,-1.4 -0.07,-0.1 -1.37,-1.8 -1.35,-1.7 -1.62,-2.2 -0.65,-0.8 -0.15,-0.2 -2.01,-2.8 -0.46,-0.7 -0.1,-0.1 -0.04,-0.1 h -0.05 l -0.02,-0.1 -0.05,-0.1 h -0.04 l -0.04,-0.1 h -0.04 l -0.02,-0.1 -1.87,-2.7 h -0.04 l -0.03,-0.1 h -0.04 l -0.04,-0.1 h -0.04 l -0.03,-0.1 h -0.04 l -2.58,-3.9 -1.03,-1.5 -1.53,-2.3 -2.06,-3.1 -0.5,-0.7 -2.56,-3.9 -0.53,-0.8 -2.01,-3 -1.56,-2.4 -0.99,-1.5 -2.52,-3.8 -0.03,-0.1 -2.5,-3.8 -1.05,-1.6 -1.47,-2.3 -2.05,-3.2 -0.46,-0.7 -2.51,-3.8 -0.55,-0.9 -1.94,-3 -1.56,-2.5 -0.93,-1.4 -2.49,-3.9 -0.06,-0.1 -2.41,-3.8 -0.6,-0.9 v 0 l -0.46,-0.8 -3.47,-5.5 -0.41,-0.6 -0.75,-1.2 -0.64,-1 -5.07,-8.1 -0.63,-1.1 -0.25,-0.4 -2.45,-3.9 -0.09,-0.2 h -0.06 l -2.28,-3.7 -0.55,-0.9 -0.52,-0.9 -1.34,-2.2 -0.95,-1.5 -1.1,-1.8 -0.38,-0.6 -1.33,-2.2 -1.07,-1.8 -0.6,-0.9 -1.14,-1.9 -0.67,-1.1 -1.55,-2.6 -0.57,-0.9 -0.27,-0.5 -2.39,-3.9 -0.11,-0.2 h -0.01 l -3.35,-5.6 -1.29,-2.2 -0.9,-1.4 -1.14,-2 -0.34,-0.5 -1.27,-2.2 -1.08,-1.8 -0.62,-1 -1.05,-1.8 -0.69,-1.2 -1.57,-2.6 -0.48,-0.9 -0.31,-0.5 -2.33,-4 -0.09,-0.1 -0.08,-0.1 -2.17,-3.7 -0.47,-0.9 -0.62,-1 -3.27,-5.6 -0.29,-0.5 -1.23,-2.2 -1.09,-1.9 -0.64,-1.1 -3.23,-5.6 -0.42,-0.7 -0.33,-0.6 -2.3,-4 -0.05,-0.1 -0.13,-0.2 -3.22,-5.7 -1.18,-2 -0.8,-1.5 -1.21,-2.1 -0.27,-0.5 -1.18,-2.1 -1.08,-1.9 -0.67,-1.1 -3.17,-5.7 -0.34,-0.6 -0.35,-0.7 -2.26,-4 h -0.02 l -0.19,-0.4 -2.03,-3.6 -0.4,-0.8 -0.72,-1.3 -1.12,-2 -0.77,-1.4 -1.24,-2.2 -0.23,-0.5 -1.13,-2 -1.1,-2 -0.67,-1.2 -0.82,-1.5 -0.74,-1.4 -1.55,-2.8 -0.29,-0.5 -0.37,-0.7 -2.2,-4.1 h -0.01 l -0.24,-0.4 -1.97,-3.7 -0.35,-0.6 -0.76,-1.4 -1.08,-2 -0.72,-1.4 -1.28,-2.3 -0.2,-0.4 -1.07,-2 -1.11,-2.1 -0.7,-1.3 -0.74,-1.4 -0.74,-1.4 -1.55,-2.9 -0.24,-0.4 -0.39,-0.8 -2.13,-4 h -0.03 l -0.26,-0.5 -1.89,-3.6 v 0 l -0.34,-0.6 -0.81,-1.6 -1.7,-3.2 -1.31,-2.5 -1.18,-2.3 -1.82,-3.5 -0.67,-1.2 -2.33,-4.5 -0.16,-0.3 -2.49,-4.8 -0.33,-0.7 -2.13,-4.1 -0.84,-1.6 -1.62,-3.2 -1.34,-2.6 -1.11,-2.2 -1.83,-3.6 -0.61,-1.2 -2.33,-4.6 -0.11,-0.2 -2.44,-4.8 -0.38,-0.7 -0.68,-1.4 -2.23,-4.4 -1.54,-3.1 -1.36,-2.7 -2.9,-5.8 -0.54,-1.1 -2.34,-4.7 -0.04,-0.1 -2.39,-4.8 -0.44,-0.9 -1.93,-3.9 -0.93,-1.9 -1.44,-3 -1.39,-2.8 -0.97,-2 -1.87,-3.8 -0.49,-1 -2.33,-4.9 -5.48,-11.3 -0.57,-1.2 -2.3,-4.8 -0.72,-1.5 -3,-6.3 -0.42,-0.9 -2.56,-5.4 -1.56,-3.3 -1.41,-3 -2.69,-5.7 -0.27,-0.6 -2.95,-6.3 -0.85,-1.8 -2.08,-4.6 -1.97,-4.2 -0.96,-2.1 -2.91,-6.3 -0.16,-0.3 -2.75,-6.1 -1.25,-2.7 -1.64,-3.6 -2.35,-5.2 -0.54,-1.1 -2.87,-6.4 -0.56,-1.3 -2.29,-5.1 -1.65,-3.6 -1.21,-2.7 -2.71,-6.2 -0.11,-0.2 -2.83,-6.4 -0.96,-2.2 -1.85,-4.2 -2.8,-6.4 -2.79,-6.4 -5.55,-12.8 -2.39,-5.5 -0.37,-0.9 -2.74,-6.4 -0.67,-1.6 -2.06,-4.8 -1.72,-4.1 -1,-2.3 -2.71,-6.5 h -0.03 l -2.67,-6.4 -0.12,-0.3 -5.26,-12.6 -2.66,-6.4 -0.42,-1 -2.24,-5.5 -1.42,-3.5 -1.23,-3 -2.43,-5.9 -0.21,-0.5 -2.62,-6.5 -2.4,-5.9 -0.42,-1.1 -2.4,-5.9 -2.6,-6.5 -0.15,-0.4 -2.42,-6.1 c -4.29,-10.8 -8.54,-21.7 -12.74,-32.5 l -2.45,-6.3 -0.08,-0.2 -2.51,-6.5 c -4.99,-13.1 -9.95,-26.1 -14.82,-39.2 l -0.87,-2.3 c -27.82,0 -51.52,1.1 -78.91,0 h -0.05 l -527.5,-22.3 c -86.68,272.4 -151.18,554.7 -191.87,844.6 l 514.73,221.6 c -17.81,164.9 -27.16,332.3 -27.16,501.8 0,169.6 9.38,336.9 27.16,501.8 l -514.73,221.7 c 40.63,289.9 105.22,572.1 191.87,844.5 l 559.99,-23.6 c 112.86,318.9 259.7,621.8 436.15,904.3 l -367.53,423 c 161.23,240.7 342.21,467.1 540.54,676.9 l 494.11,-264.1 c 237.46,235.8 500.43,445.9 784.28,626.1 l -147.6,540.6 c 247.49,146.2 508.26,272.3 780.01,376.3 l 330.61,-452.5 c 312.46,108.2 640.16,183.5 978.92,222.6 l 101.53,550.9 c 142.85,11.9 287.26,18.2 433.16,18.2 145.9,0 290.3,-6.3 433.2,-18.2 l 101.5,-550.9 c 338.8,-39 666.5,-114.5 978.9,-222.6 l 330.6,452.5 c 271.8,-103.9 532.5,-230.1 780,-376.3 l -147.6,-540.6 c 283.9,-180.2 546.8,-390.4 784.3,-626.1 l 494.1,264.1 c 198.4,-209.8 379.3,-436.2 540.6,-676.9 l -367.6,-423 c 176.5,-282.5 323.3,-585.4 436.2,-904.3 l 560,23.6 c 86.7,-272.4 151.2,-554.6 191.8,-844.5 l -514.7,-221.7 c 17.8,-164.8 27.2,-332.2 27.2,-501.8 0,-169.5 -9.4,-336.9 -27.2,-501.8 L 15116,13291 c -40.6,-290 -105.2,-572.2 -191.8,-844.6 l -560,23.6 c -112.9,-318.9 -259.7,-621.8 -436.2,-904.2 l 367.6,-423 c -161.3,-240.8 -342.2,-467.2 -540.6,-677 l -494.1,264.2 c -237.4,-235.8 -500.4,-446 -784.3,-626.2 l 147.6,-540.5 C 12376.7,9417 12116,9290.9 11844.2,9187 l -330.6,452.4 c -312.4,-108.1 -640.2,-183.5 -978.9,-222.5 l -101.5,-551 c -142.9,-11.8 -287.3,-18.2 -433.2,-18.2 -145.9,0 -290.31,6.4 -433.16,18.2 l -101.53,551 c -338.79,38.9 -666.44,114.4 -978.92,222.5 l -38.65,98.5 c 45.82,26.7 68.96,84.5 44.19,138.3 -0.41,0.9 -0.83,1.8 -1.26,2.6 l -121.24,263.3 -23.41,118.6 h 0.01 v 0"
         style="fill:#886cc0;fill-opacity:1;fill-rule:evenodd;stroke:none"
         id="path18" /><path
         d="m 13041.8,13477.3 c -153.8,-369.1 -164.5,-600.4 -127.1,-1054.4 h 309.9 l 428.1,571.7 -24.7,443.7 z m -593.2,4.4 433.2,4.4 c -153.4,-375.2 -139.4,-604.1 -133.7,-1063.2 h -455.6 c 24.3,411 67.7,781.9 156.1,1058.8 v 0"
         style="fill:#ffffff;fill-opacity:1;fill-rule:evenodd;stroke:none"
         id="path20" /></g></g></svg>
